<svg width="77" height="61" viewBox="0 0 77 61" fill="none" xmlns="http://www.w3.org/2000/svg">
<g clip-path="url(#clip0_9_365)">
<path d="M11.9279 44.4671L7.04832 42.7566C6.51112 40.0869 6.63159 37.326 7.39925 34.7136C9.25038 39.1849 15.0239 40.435 18.2296 44.0541C19.2208 45.1905 19.9444 46.5362 20.3468 47.9913C20.7492 49.4465 20.8201 50.9738 20.5541 52.4602L21.4885 56.0168C19.0745 55.739 16.7493 54.9395 14.6729 53.6733C12.5966 52.4071 10.8186 50.7043 9.46132 48.6823C8.7111 47.5404 8.10719 46.3082 7.66385 45.0149C9.77018 44.865 11.9279 44.4671 11.9279 44.4671Z" fill="#F2F2F2"/>
<path d="M17.5299 33.7884L14.1223 29.889C14.965 27.3 16.4249 24.9565 18.3751 23.062C17.7918 27.8682 22.2034 31.8086 23.2174 36.5422C23.5224 38.021 23.4917 39.5497 23.1278 41.015C22.7639 42.4803 22.0759 43.8447 21.115 45.007L20.1827 48.5641C18.218 47.1297 16.5866 45.2851 15.4008 43.1573C14.2151 41.0295 13.5033 38.669 13.3143 36.2386C13.2218 34.8741 13.3009 33.5033 13.5497 32.1586C15.4566 33.0688 17.5299 33.7884 17.5299 33.7884Z" fill="#F2F2F2"/>
<path d="M46.0001 46.2878H21.3626C20.6387 46.2878 20.05 46.4341 20.05 46.6147V56.2832H47.3161V46.6147C47.3161 46.4341 46.7275 46.2878 46.0001 46.2878Z" fill="#F2F2F2"/>
<path d="M76.2369 56.375L0.121042 56.4063C0.08894 56.4063 0.0581531 56.3935 0.0354534 56.3707C0.0127538 56.348 0 56.3171 0 56.2849C0 56.2527 0.0127538 56.2218 0.0354534 56.199C0.0581531 56.1762 0.08894 56.1634 0.121042 56.1634L76.2369 56.1321C76.2689 56.1322 76.2996 56.145 76.3222 56.1678C76.3449 56.1905 76.3576 56.2214 76.3576 56.2535C76.3576 56.2857 76.3449 56.3165 76.3222 56.3393C76.2996 56.362 76.2689 56.3749 76.2369 56.375Z" fill="#CACACA"/>
<path d="M27.5777 55.6946L27.3474 57.5765L34.4725 59.363L34.8123 56.5855L27.5777 55.6946Z" fill="#9E616A"/>
<path d="M28.9374 55.2385L28.7484 58.267L27.4646 58.1089L25.1473 60.725C25.0329 60.8542 24.8803 60.9433 24.7118 60.9794C24.5433 61.0154 24.3677 60.9964 24.2107 60.9253C24.0537 60.8541 23.9235 60.7345 23.839 60.5838C23.7546 60.4331 23.7204 60.2593 23.7414 60.0877L24.1793 56.5084L25.5247 56.0478L24.2842 55.6506L24.4493 54.301L28.9374 55.2385Z" fill="#2F2E41"/>
<path d="M48.3926 56.6209L50.2263 57.0793L52.8615 50.2016L50.1552 49.5249L48.3926 56.6209Z" fill="#9E616A"/>
<path d="M53.073 59.654L50.7675 57.0277L51.0806 55.7681L50.7542 55.7069H50.7522L48.715 55.3254L48.1071 55.2112L46.6331 59.5663L47.9485 59.8957L48.4924 58.7085L48.7201 59.7988L48.7841 60.1038L52.272 60.9758C52.4391 61.0176 52.6151 61.0048 52.7744 60.9391C52.9336 60.8734 53.0678 60.7583 53.1573 60.6107C53.2467 60.463 53.2868 60.2906 53.2717 60.1185C53.2565 59.9464 53.1869 59.7836 53.073 59.654Z" fill="#2F2E41"/>
<path d="M33.0069 55.9056L33.6717 55.8005C32.9581 56.5461 32.2729 57.0387 31.6223 57.1917L31.9375 56.0739L33.0069 55.9056Z" fill="#2F2E41"/>
<path d="M52.4275 52.5491C51.7982 53.9607 51.3448 54.8644 51.3448 54.8644L51.1201 54.7461L50.5285 54.435L49.1195 53.6935L48.8776 53.566L48.9467 52.2177L49.2537 46.2551L49.3838 43.742L44.0133 46.5897L37.6587 49.9595C37.3985 50.4144 37.1399 50.8571 36.8831 51.2875L32.5657 48.3164L36.9471 41.9021L39.5007 40.7047L38.9497 40.5976C39.0906 40.3933 39.2499 40.2025 39.4255 40.0274L39.6187 39.9183C39.6187 39.9183 51.7697 33.203 55.2657 36.6463C55.5672 36.9543 55.7934 37.3282 55.9265 37.7387C57.125 41.1922 54.1312 48.7305 52.4275 52.5491Z" fill="#2F2E41"/>
<path d="M49.7539 58.8655C49.4921 59.2581 49.1367 59.5789 48.72 59.7987C48.367 59.9924 47.9932 60.1454 47.6059 60.2546C42.4539 61.7651 31.1791 58.7635 31.1791 58.7635L31.6223 57.1917L31.9374 56.0739L33.0069 55.9056L33.6717 55.8006L41.6233 54.5491L39.4326 53.0416L36.8831 51.2873L32.5657 48.3163L27.3913 45.9817C21.3935 41.188 26.4154 35.8129 26.4154 35.8129L29.7721 33.4263L30.8619 32.6511L37.557 36.0883L39.5007 40.7045L40.0985 42.1232L44.0133 46.5895L48.9467 52.2175L48.9853 52.2614C49.128 52.37 49.2622 52.4894 49.3869 52.6184C49.4326 52.6632 49.4804 52.7132 49.5292 52.7673C49.9726 53.2486 50.3128 53.8162 50.5285 54.4349C50.6687 54.8429 50.7448 55.2702 50.7542 55.7016C50.7547 55.7024 50.7549 55.7033 50.7549 55.7042C50.7549 55.7051 50.7547 55.706 50.7542 55.7067C50.7765 56.6053 50.5194 57.665 49.7539 58.8655Z" fill="#2F2E41"/>
<path d="M24.1205 38.0818C23.8535 38.0009 23.7176 37.9024 23.6928 37.772C23.6564 37.5805 23.8709 37.4098 24.1193 37.2121C24.2925 37.0743 24.7496 36.8345 24.5825 36.7607C22.0495 35.6418 28.2078 19.7554 29.9947 17.9502C30.3578 17.5834 30.3145 16.8388 30.7985 16.1763C32.1203 14.3671 33.28 14.0393 35.5902 13.3864C35.7777 13.3334 35.9731 13.2779 36.1763 13.2198C36.4392 13.1446 36.162 13.894 36.2991 13.3915C36.4514 12.8331 36.6089 12.2556 36.9872 11.9794L37.0119 11.9614L37.0422 11.9634C37.7423 12.0099 40.0279 12.3948 41.2002 13.2252L41.2164 13.2368L41.2258 13.2543C41.4419 13.6587 41.2891 14.269 41.1413 14.8591C41.0198 15.3435 41.3119 14.5771 41.4281 14.8261C42.3165 16.7294 43.8441 17.1603 43.8596 17.1646L43.9355 17.1852L43.9204 17.2626C44.3197 19.3399 41.5808 25.776 40.9886 30.1099C40.3871 34.5129 43.8165 39.4719 38.7769 38.6383C38.7884 38.6766 40.6368 42.4837 40.6067 42.514C40.1485 42.9745 25.1268 38.3866 24.1205 38.0818Z" fill="#E6E6E6"/>
<path d="M57.4639 14.7234C57.5003 14.9316 57.4908 15.1452 57.436 15.3492C57.3812 15.5533 57.2825 15.7428 57.1468 15.9045C57.0111 16.0661 56.8418 16.196 56.6507 16.2848C56.4596 16.3737 56.2514 16.4195 56.0407 16.4189L54.3487 21.2673L52.7363 19.1438L54.5903 14.8652C54.6148 14.5102 54.7681 14.1766 55.0214 13.9275C55.2746 13.6784 55.6101 13.5312 55.9643 13.5137C56.3186 13.4962 56.6668 13.6097 56.9432 13.8327C57.2196 14.0556 57.4049 14.3726 57.4639 14.7234Z" fill="#9E616A"/>
<path d="M50.0174 28.2346L46.9504 27.5692C41.4184 25.8118 39.5215 23.6429 38.9031 22.1325C38.2432 20.5209 38.8445 19.3414 38.8706 19.2921L38.8863 19.2709L40.8704 17.3336C41.1224 17.0876 41.4237 16.8981 41.7542 16.7777C42.0848 16.6573 42.4371 16.6088 42.7877 16.6354C43.1384 16.662 43.4794 16.763 43.7882 16.9319C44.097 17.1007 44.3665 17.3335 44.5788 17.6147L48.6078 22.9522L50.4735 20.4163L51.3784 19.6898L51.8665 18.317L53.7386 16.2737L55.9061 17.2799L55.0901 22.2208L53.9981 22.8907L53.9467 23.6181L53.9287 23.6394L50.0174 28.2346Z" fill="#E6E6E6"/>
<path d="M34.651 43.7185C34.6359 43.7185 34.6207 43.7182 34.6054 43.7176C34.4272 43.7111 34.2533 43.6615 34.0983 43.5731C33.9433 43.4846 33.8119 43.3599 33.7152 43.2096C32.9914 42.1242 32.1031 41.1587 31.0824 40.3482C30.4645 39.8527 29.8188 39.392 29.1945 38.9464C27.5837 37.7973 26.0667 36.715 25.2246 35.2195C23.3886 31.9586 25.5508 27.4166 28.6396 25.3797C32.1041 23.0952 36.6611 22.7368 41.0696 22.6899C41.5277 22.685 41.9862 22.6826 42.4449 22.6826C50.3879 22.6857 58.3142 23.4128 66.1261 24.8551C68.7237 25.336 71.4428 25.925 73.6278 27.3545C75.7999 28.7755 77.1201 31.0133 76.9913 33.0557C76.8032 36.0372 73.653 38.2651 70.7844 38.8475C68.0503 39.4023 65.2099 39.0274 62.2028 38.6304C61.539 38.5428 60.8526 38.4522 60.1738 38.3734C52.7969 37.518 38.939 40.1548 38.3528 40.2675L37.7711 40.3792L35.5142 43.2931C35.4127 43.4259 35.282 43.5334 35.1322 43.6072C34.9825 43.681 34.8178 43.7191 34.651 43.7185Z" fill="#4C38C2"/>
<path d="M67.5011 29.1733H36.3216C36.1418 29.1731 35.9695 29.1013 35.8424 28.9736C35.7154 28.846 35.644 28.673 35.644 28.4927C35.644 28.3123 35.7154 28.1393 35.8424 28.0117C35.9695 27.884 36.1418 27.8122 36.3216 27.812H67.5011C67.6809 27.8122 67.8532 27.884 67.9803 28.0117C68.1073 28.1393 68.1787 28.3123 68.1787 28.4927C68.1787 28.673 68.1073 28.846 67.9803 28.9736C67.8532 29.1013 67.6809 29.1731 67.5011 29.1733Z" fill="white"/>
<path d="M67.5011 33.3513H36.3216C36.2325 33.3514 36.1442 33.334 36.0618 33.2999C35.9794 33.2658 35.9045 33.2157 35.8414 33.1526C35.7783 33.0894 35.7282 33.0144 35.694 32.9319C35.6598 32.8493 35.6422 32.7608 35.6421 32.6713C35.642 32.5819 35.6595 32.4934 35.6935 32.4107C35.7275 32.3281 35.7775 32.253 35.8404 32.1897C35.9034 32.1264 35.9782 32.0762 36.0605 32.0419C36.1428 32.0077 36.2311 31.99 36.3202 31.99H67.5011C67.6809 31.9902 67.8532 32.062 67.9803 32.1896C68.1073 32.3173 68.1787 32.4903 68.1787 32.6706C68.1787 32.851 68.1073 33.024 67.9803 33.1516C67.8532 33.2792 67.6809 33.3511 67.5011 33.3513Z" fill="white"/>
<path d="M39.9551 37.529H36.3216C36.1418 37.5288 35.9695 37.457 35.8424 37.3294C35.7154 37.2017 35.644 37.0287 35.644 36.8484C35.644 36.668 35.7154 36.495 35.8424 36.3674C35.9695 36.2398 36.1418 36.1679 36.3216 36.1677H39.9551C40.1349 36.1679 40.3072 36.2398 40.4343 36.3674C40.5613 36.495 40.6327 36.668 40.6327 36.8484C40.6327 37.0287 40.5613 37.2017 40.4343 37.3294C40.3072 37.457 40.1349 37.5288 39.9551 37.529Z" fill="white"/>
<path d="M57.5211 14.9131C60.0859 14.9131 62.1651 12.827 62.1651 10.2538C62.1651 7.68052 60.0859 5.59448 57.5211 5.59448C54.9564 5.59448 52.8772 7.68052 52.8772 10.2538C52.8772 12.827 54.9564 14.9131 57.5211 14.9131Z" fill="white"/>
<path d="M57.521 14.97C56.5913 14.97 55.6824 14.6934 54.9094 14.1751C54.1364 13.6569 53.5339 12.9204 53.1781 12.0586C52.8224 11.1968 52.7293 10.2486 52.9106 9.33371C53.092 8.41886 53.5397 7.57852 54.1971 6.91895C54.8545 6.25938 55.6921 5.8102 56.6039 5.62822C57.5157 5.44625 58.4609 5.53964 59.3198 5.89659C60.1787 6.25354 60.9129 6.85802 61.4294 7.63359C61.9459 8.40916 62.2216 9.32099 62.2216 10.2538C62.2202 11.5041 61.7245 12.7029 60.8433 13.587C59.962 14.4712 58.7672 14.9685 57.521 14.97Z" fill="#3F3D56"/>
<path d="M57.1734 12.1161C57.1635 12.1161 57.1536 12.1157 57.1437 12.1153C57.0562 12.111 56.9707 12.0879 56.893 12.0473C56.8153 12.0068 56.7472 11.95 56.6935 11.8806L55.9174 10.8795C55.8684 10.8163 55.8323 10.7441 55.8111 10.6669C55.7899 10.5897 55.7841 10.5091 55.794 10.4296C55.8039 10.3502 55.8293 10.2735 55.8687 10.2039C55.9082 10.1343 55.9609 10.0732 56.0239 10.024L56.0518 10.0022C56.1148 9.953 56.1868 9.91673 56.2638 9.89548C56.3407 9.87422 56.4211 9.86839 56.5003 9.87832C56.5795 9.88825 56.656 9.91375 56.7254 9.95335C56.7948 9.99295 56.8557 10.0459 56.9047 10.1091C56.9439 10.1596 56.9935 10.201 57.0501 10.2305C57.1067 10.26 57.169 10.2769 57.2327 10.28C57.2965 10.2831 57.3601 10.2724 57.4193 10.2486C57.4785 10.2247 57.5319 10.1883 57.5758 10.1419L59.1516 8.47284C59.2625 8.35562 59.4152 8.28733 59.5763 8.28294C59.7373 8.27855 59.8935 8.33842 60.0106 8.44942L60.0365 8.47413C60.0944 8.52918 60.141 8.59515 60.1735 8.66826C60.206 8.74137 60.2239 8.82019 60.226 8.90023C60.2282 8.98026 60.2146 9.05994 60.186 9.1347C60.1575 9.20947 60.1145 9.27785 60.0596 9.33596L57.6143 11.9256C57.5576 11.9858 57.4892 12.0337 57.4134 12.0665C57.3376 12.0992 57.2559 12.1161 57.1734 12.1161Z" fill="white"/>
<path d="M33.6384 34.3957C33.4306 34.3612 33.2329 34.2814 33.0591 34.1619C32.8854 34.0424 32.7398 33.8862 32.6328 33.7042C32.5257 33.5222 32.4597 33.3189 32.4395 33.1085C32.4192 32.8982 32.4452 32.6859 32.5155 32.4867L28.5166 29.2786L31.0478 28.4558L34.4572 31.6284C34.7829 31.7692 35.0458 32.0249 35.1962 32.3472C35.3465 32.6694 35.3738 33.0358 35.2729 33.3769C35.1719 33.718 34.9498 34.0101 34.6486 34.1979C34.3474 34.3856 33.9879 34.456 33.6384 34.3957Z" fill="#9E616A"/>
<path d="M23.3994 22.8701L25.0413 20.1872C28.5269 15.5326 31.195 14.4556 32.8203 14.3705C34.5544 14.2798 35.4644 15.2399 35.5021 15.2808L35.5169 15.3027L36.6814 17.8228C36.8293 18.1429 36.9077 18.4909 36.9113 18.8437C36.915 19.1965 36.8439 19.546 36.7028 19.8692C36.5616 20.1923 36.3535 20.4817 36.0925 20.718C35.8314 20.9544 35.5232 21.1324 35.1884 21.2402L28.834 23.2858L30.6007 25.8921L30.9841 26.9895L32.1134 27.9064L33.4147 30.3556L31.7503 32.074L27.3742 29.6645L27.106 28.4089L26.439 28.1192L26.425 28.0951L23.3994 22.8701Z" fill="#E6E6E6"/>
<path d="M46.0083 12.2419L46.0125 12.2422C46.2321 12.2613 46.4503 12.192 46.619 12.0496C46.7877 11.9073 46.8931 11.7035 46.9121 11.4831L47.3142 6.84658C47.387 6.01597 47.2926 5.17914 47.0367 4.38586C46.535 2.8376 45.4572 1.5433 44.0278 0.772697C43.2898 0.375862 42.4793 0.133064 41.6452 0.0589349C38.2329 -0.244333 36.9914 0.476545 34.9194 5.70876C32.8474 10.941 34.5167 10.3524 34.5167 10.3524C34.5069 10.4641 34.5196 10.5767 34.5541 10.6834C34.6218 10.8916 34.767 11.0655 34.9595 11.1687C35.0582 11.2216 35.1666 11.254 35.2781 11.2641C39.3164 12.2654 43.3915 13.3206 46.009 12.2419L46.0083 12.2419Z" fill="#2F2E41"/>
<path d="M38.453 4.47084C37.9519 5.22546 37.6849 6.11214 37.6858 7.0189C37.6867 7.92566 37.9553 8.81182 38.4579 9.56547C38.9604 10.3191 39.6743 10.9065 40.5094 11.2533C41.3444 11.6001 42.2632 11.6909 43.1496 11.5141C43.7364 11.399 44.2946 11.1683 44.7919 10.8352C45.2892 10.5021 45.7156 10.0733 46.0465 9.57371C46.5466 8.81935 46.8128 7.93334 46.8117 7.02738C46.8105 6.12143 46.5421 5.23609 46.0401 4.48301C45.5382 3.72992 44.8252 3.1428 43.9912 2.79568C43.1571 2.44855 42.2393 2.35696 41.3534 2.53246C40.7661 2.64689 40.2073 2.87717 39.7095 3.20994C39.2116 3.54271 38.7845 3.97136 38.453 4.47101L38.453 4.47084Z" fill="#9E616A"/>
<path d="M48.7471 7.35174C48.8047 6.69482 48.73 6.033 48.5276 5.4056C48.4715 3.86792 48.0175 2.47783 46.1482 2.54874C45.5682 2.23715 44.9316 2.0458 44.2764 1.98606L43.3518 1.90068C43.3415 1.89971 43.3311 1.89877 43.3207 1.89787C42.0271 1.78577 40.7421 2.19381 39.7484 3.03226C38.7547 3.8707 38.1337 5.07085 38.022 6.36869L38.0139 6.46156L39.9699 6.64028L40.7993 4.82839L40.7702 6.71378L41.7805 6.80648L42.1987 5.89234L42.1843 6.84294C43.692 8.15753 45.9655 8.21184 48.7382 7.44471L48.7471 7.35174Z" fill="#2F2E41"/>
<path d="M42.5236 11.7904C42.5413 11.943 42.5159 12.0974 42.4504 12.2362C42.4174 12.3073 42.3746 12.3734 42.3233 12.4326C42.2794 12.483 42.2298 12.528 42.1753 12.5667C42.0141 12.6809 41.8177 12.7338 41.6212 12.7157C41.6089 12.7146 41.5967 12.7131 41.5845 12.7115C41.5723 12.7099 41.5601 12.7079 41.548 12.7057C41.5357 12.7036 41.5235 12.7011 41.5114 12.6983C41.4993 12.6956 41.4872 12.6925 41.475 12.6893L40.7915 12.502L40.0128 10.3682L39.8499 12.2462L36.7419 11.4003L37.433 3.43066L42.724 3.9182L42.58 4.05926C42.1013 4.53299 41.7621 5.13005 41.5998 5.78472C41.4388 6.4481 41.3923 7.13426 41.4623 7.81341C41.528 8.50017 41.6593 9.17901 41.8544 9.84059C42.0243 10.4264 42.2276 11.002 42.4635 11.5643C42.494 11.6365 42.5142 11.7126 42.5236 11.7904Z" fill="#2F2E41"/>
</g>
<defs>
<clipPath id="clip0_9_365">
<rect width="77" height="61" fill="white"/>
</clipPath>
</defs>
</svg>
