<svg width="77" height="51" viewBox="0 0 77 51" fill="none" xmlns="http://www.w3.org/2000/svg">
<g clip-path="url(#clip0_9_397)">
<path d="M27.0727 48.3948C27.0123 48.3974 26.9524 48.3822 26.9013 48.351C26.8501 48.3198 26.8102 48.2743 26.7868 48.2205C26.7635 48.1668 26.7579 48.1074 26.7707 48.0505C26.7836 47.9935 26.8143 47.9418 26.8588 47.9023L26.879 47.8248C26.8764 47.8186 26.8737 47.8125 26.871 47.8063C26.8101 47.6678 26.708 47.5497 26.5776 47.4669C26.4472 47.384 26.2942 47.3401 26.138 47.3407C25.9817 47.3413 25.8291 47.3862 25.6994 47.47C25.5696 47.5538 25.4684 47.6726 25.4086 47.8115C25.1694 48.366 24.8649 48.9214 24.7899 49.5076C24.7569 49.7668 24.7708 50.0295 24.8311 50.284C24.2693 49.1045 23.9776 47.8225 23.9757 46.525C23.9756 46.1994 23.9944 45.8741 24.032 45.5505C24.0631 45.2852 24.1062 45.0218 24.1614 44.7603C24.4625 43.3415 25.109 42.0117 26.0477 40.88C26.5021 40.6414 26.8695 40.2745 27.1005 39.8287C27.1842 39.6684 27.2434 39.4974 27.2762 39.3208C27.2249 39.3273 27.0829 38.5759 27.1216 38.5298C27.0501 38.4255 26.9223 38.3737 26.8443 38.2719C26.4563 37.7656 25.9218 37.854 25.6427 38.542C25.0466 38.8316 25.0409 39.3118 25.4066 39.7737C25.6393 40.0675 25.6713 40.4652 25.8755 40.7797C25.8545 40.8056 25.8326 40.8307 25.8116 40.8566C25.4276 41.3318 25.093 41.8422 24.8124 42.3803C24.8806 41.7774 24.7992 41.1676 24.5748 40.601C24.3474 40.073 23.9211 39.6282 23.5457 39.1717C23.0949 38.6234 22.1703 38.8627 22.0908 39.5578C22.0901 39.5645 22.0893 39.5712 22.0886 39.578C22.1443 39.6082 22.1989 39.6404 22.2523 39.6744C22.3194 39.7175 22.3714 39.7792 22.4014 39.8512C22.4315 39.9233 22.4383 40.0024 22.4208 40.0782C22.4034 40.1541 22.3625 40.223 22.3036 40.2761C22.2448 40.3292 22.1706 40.364 22.0909 40.3758L22.0827 40.377C22.1026 40.5704 22.1377 40.7621 22.1877 40.9504C21.7062 42.7429 22.7458 43.3958 24.2303 43.4251C24.2631 43.4413 24.295 43.4575 24.3278 43.4728C24.0459 44.2417 23.8691 45.0426 23.8018 45.8554C23.7637 46.3349 23.766 46.8166 23.8085 47.2957L23.806 47.2788C23.6984 46.7459 23.4031 46.2652 22.97 45.9177C22.3266 45.409 21.4176 45.2216 20.7235 44.8127C20.6498 44.7672 20.564 44.7428 20.4764 44.7426C20.3887 44.7424 20.3028 44.7663 20.2288 44.8116C20.1548 44.8568 20.0958 44.9215 20.0587 44.9979C20.0217 45.0744 20.0081 45.1595 20.0196 45.2431C20.0205 45.2491 20.0215 45.255 20.0224 45.261C20.1259 45.3015 20.2267 45.3482 20.3241 45.4009C20.3798 45.4311 20.4344 45.4633 20.4878 45.4973C20.5549 45.5404 20.6069 45.6021 20.637 45.6741C20.667 45.7462 20.6738 45.8253 20.6563 45.9011C20.6389 45.9769 20.598 46.0459 20.5392 46.099C20.4803 46.1521 20.4061 46.1869 20.3264 46.1987L20.3182 46.1999C20.3123 46.2007 20.3073 46.2015 20.3014 46.2023C20.4782 46.6086 20.7263 46.9826 21.0349 47.3079C21.336 48.8727 22.6293 49.0211 24.0127 48.5654H24.0135C24.1653 49.2003 24.3852 49.8183 24.6698 50.4094H27.014C27.0224 50.3843 27.03 50.3584 27.0375 50.3333C26.8205 50.3465 26.6027 50.334 26.3889 50.2961C26.5628 50.0907 26.7367 49.8837 26.9107 49.6783C26.9145 49.6744 26.9182 49.6704 26.9216 49.6661C27.0098 49.561 27.0989 49.4567 27.1871 49.3515L27.1871 49.3514C27.1918 49.0291 27.1533 48.7076 27.0727 48.3948Z" fill="#F2F2F2"/>
<path d="M9.04175 44.982L9.68857 45.64L12.6919 43.4983L11.7373 42.5271L9.04175 44.982Z" fill="#A0616A"/>
<path d="M10.1015 45.346L9.36923 44.6839L9.18941 44.5217L7.3252 45.9563L7.81013 46.4496L8.38094 46.0973L8.11871 46.7636L9.40444 48.0716C9.46605 48.1343 9.54687 48.1765 9.63512 48.1918C9.72336 48.2072 9.81441 48.1951 9.89497 48.1572C9.97553 48.1192 10.0414 48.0575 10.0829 47.981C10.1245 47.9045 10.1395 47.8172 10.1259 47.7319L9.8484 46.004L10.3374 45.5589L10.1015 45.346Z" fill="#2F2E41"/>
<path d="M23.257 21.0244L23.0519 23.1793C23.0519 23.1793 22.694 24.8028 22.9418 24.6712C23.1897 24.5396 22.7453 25.1319 22.8623 25.6455C22.9794 26.1591 21.8626 29.989 22.3684 29.5923C22.8742 29.1955 22.0761 31.9364 21.5713 33.2886C21.4167 33.7066 21.2579 34.1297 21.0981 34.5498C21.0666 34.6348 21.035 34.7188 21.0024 34.8038C20.7952 35.3504 20.5881 35.8888 20.3894 36.3969C20.361 36.4678 20.3336 36.5386 20.3063 36.6085C20.3052 36.6105 20.3052 36.6125 20.3042 36.6125C19.6501 38.2694 19.0896 39.5731 18.8656 39.7887C18.7489 39.901 16.8971 41.1885 15.0306 42.4779C13.0715 43.8312 11.0966 45.1875 11.0966 45.1875L9.2522 43.3251C9.2522 43.3251 9.29635 43.313 9.37944 43.2887C9.53296 43.2462 9.81691 43.1662 10.1892 43.0599C11.7413 42.6196 9.76956 41.9344 11.1787 41.4445C11.5762 41.3069 11.8412 41.1996 11.9011 41.1429C12.2513 40.814 12.7213 40.0296 12.9432 40.3585C13.1651 40.6875 14.1715 38.2431 14.4617 38.0012C14.6173 37.8706 15.1252 37.2603 15.5606 36.7239C15.9349 36.2623 16.2567 35.8544 16.2567 35.8544C16.2567 35.8544 16.263 35.6358 16.2724 35.2876C16.2862 34.7725 16.3061 33.9718 16.3272 33.1702C16.3261 33.1692 16.3261 33.1692 16.3272 33.1692C16.3345 32.8676 16.3419 32.5659 16.3493 32.2795C16.3545 32.0578 16.3597 31.8443 16.365 31.6469C16.3787 31.0558 16.3881 30.6085 16.3881 30.4971C16.3881 30.1317 16.3881 30.4162 16.6878 30.1955C16.7326 30.1617 16.7751 30.1252 16.8151 30.0862C16.8792 30.0307 16.9383 29.9701 16.9918 29.905C17.0138 29.8595 16.8761 29.9212 16.6973 29.8868C16.6005 29.8681 16.5109 29.824 16.4386 29.7593C16.0621 29.4334 16.4681 28.4314 16.4681 28.4314C15.6121 26.7835 15.6742 25.4323 16.0748 24.3908C16.3743 23.6434 16.8498 22.9731 17.4639 22.4323C17.6976 22.218 17.9522 22.0258 18.2242 21.8584L18.2505 21.7218L18.5397 20.2147C18.6935 20.1334 18.8534 20.0634 19.0181 20.0052C19.5317 19.8278 20.0829 19.775 20.6228 19.8514C21.1594 19.9261 21.6789 20.088 22.1592 20.3301C22.5517 20.5199 22.9201 20.7529 23.257 21.0244Z" fill="#2F2E41"/>
<path d="M15.1804 48.3395L16.1175 48.4234L16.9071 44.9067L15.524 44.783L15.1804 48.3395Z" fill="#A0616A"/>
<path d="M17.8792 49.7177L16.4869 48.5953L16.55 47.9495L16.2262 47.9394L15.223 47.908H15.2219L14.9758 47.8999L14.5583 50.1611L15.2618 50.2238L15.448 49.5963L15.7077 50.2643L16.08 50.2977L17.57 50.4313C17.5827 50.4323 17.5963 50.4333 17.609 50.4333C17.6682 50.4334 17.7268 50.4214 17.7808 50.398C17.8348 50.3746 17.8831 50.3404 17.9223 50.2977C17.9833 50.2334 18.0206 50.1516 18.0285 50.0649C18.0347 49.9997 18.0243 49.9341 17.9983 49.8736C17.9723 49.8131 17.9314 49.7596 17.8792 49.7177Z" fill="#2F2E41"/>
<path d="M20.3893 36.397C20.0328 38.2644 18.5238 42.643 17.611 45.2058C17.1956 46.3768 16.9054 47.1693 16.9054 47.1693L16.4322 47.0256H16.4312L15.6309 46.7826L15.3396 46.6936H15.3386L14.9852 46.5853C14.9852 46.5853 15.0263 44.4942 15.0305 42.478C15.0336 41.6328 15.0294 40.7998 15.0126 40.1399C14.9937 39.4203 14.9611 38.9051 14.9075 38.8029C14.6855 38.3838 15.0568 38.3393 15.449 38.234C15.8423 38.1278 15.5352 37.9678 15.3827 37.6278C15.2797 37.401 15.4826 37.0984 15.6267 36.9263C15.6665 36.8779 15.7089 36.8316 15.754 36.7877C15.754 36.7877 15.6845 36.7644 15.5605 36.7239C15.9348 36.2624 16.2566 35.8545 16.2566 35.8545C16.2566 35.8545 16.2629 35.6358 16.2723 35.2877C16.2861 34.7725 16.306 33.9719 16.3271 33.1703C16.326 33.1692 16.326 33.1692 16.3271 33.1692C16.3344 32.8676 16.3418 32.566 16.3492 32.2795C16.9506 32.7239 17.5353 33.1591 18.0653 33.562C18.066 33.5625 18.0665 33.5631 18.0668 33.5638C18.0672 33.5645 18.0674 33.5652 18.0674 33.566C19.3408 34.5346 20.2968 35.312 20.4313 35.5589C20.4923 35.6702 20.4713 35.9679 20.3893 36.397Z" fill="#2F2E41"/>
<path d="M51.7395 3.42446C51.9148 3.40868 52.0896 3.45936 52.2267 3.56572C52.3637 3.67208 52.4523 3.82572 52.4734 3.99396C52.4772 4.02822 52.478 4.06272 52.4758 4.09711L54.6443 4.98843L54.5616 6.20667L51.7281 4.67653C51.5807 4.65683 51.4442 4.59071 51.3399 4.48847C51.2356 4.38624 51.1694 4.25365 51.1516 4.11139C51.1423 4.03036 51.1497 3.94835 51.1733 3.87005C51.1969 3.79175 51.2363 3.7187 51.2893 3.65507C51.3422 3.59143 51.4077 3.53846 51.4819 3.49917C51.5562 3.45988 51.6377 3.43505 51.7219 3.4261C51.7278 3.42548 51.7336 3.42493 51.7395 3.42446Z" fill="#FFB6B6"/>
<path d="M66.4932 10.9444C66.4397 10.7083 66.3401 10.484 66.1998 10.2835C66.1608 10.2264 66.1183 10.1717 66.0726 10.1195C65.9022 9.9242 65.7434 9.74504 65.5962 9.58511C65.5068 9.48489 65.4195 9.39178 65.3375 9.30578C64.8612 8.80273 64.5489 8.53654 64.4059 8.51425C64.3364 8.50313 64.2681 8.49503 64.2018 8.48692C63.8622 8.44645 63.6161 8.41709 63.6088 8.07193C63.608 8.02248 63.6115 7.97305 63.6192 7.92416C63.632 7.84205 63.6506 7.76089 63.675 7.68125C63.689 7.63611 63.6999 7.59013 63.7076 7.54361C63.7181 7.48391 63.7139 7.43933 63.6802 7.412C63.6382 7.37864 63.5677 7.38369 63.4352 7.43429C63.4142 7.4424 63.39 7.45149 63.3648 7.46261C63.3563 7.46568 63.348 7.46973 63.3385 7.47378C63.3217 7.48085 63.3027 7.48895 63.2838 7.49805C63.125 7.57094 62.88 7.58004 62.6003 7.5527C61.7748 7.47175 60.6581 7.07094 60.6444 7.06585L53.6115 4.4353L53.5463 4.53652L53.3917 4.7774L53.3381 4.86038L53.2771 4.95551L53.011 5.36848L52.8765 5.57699L55.1479 7.22578L55.3949 7.40493L55.6074 7.55981L59.944 10.7086L61.5613 11.7359L61.9221 11.9646L63.4595 12.9404C63.6804 13.0809 63.9284 13.1774 64.1888 13.2242C64.4491 13.271 64.7166 13.2671 64.9753 13.2127C65.2341 13.1584 65.4789 13.0547 65.6954 12.9078C65.9118 12.7609 66.0955 12.5737 66.2356 12.3574C66.5086 11.9364 66.6009 11.4298 66.4932 10.9444Z" fill="#E6E6E6"/>
<path d="M76.5616 50.5H0.771905C0.744015 50.5 0.717268 50.4894 0.697548 50.4704C0.677827 50.4514 0.666748 50.4257 0.666748 50.3988C0.666748 50.372 0.677827 50.3462 0.697548 50.3272C0.717268 50.3083 0.744015 50.2976 0.771905 50.2976H76.5616C76.5895 50.2976 76.6162 50.3083 76.6359 50.3272C76.6557 50.3462 76.6667 50.372 76.6667 50.3988C76.6667 50.4257 76.6557 50.4514 76.6359 50.4704C76.6162 50.4894 76.5895 50.5 76.5616 50.5Z" fill="#E6E6E6"/>
<path d="M18.0088 17.3818L18.2059 19.1412L18.09 21.448L23.3988 20.8411L23.8976 17.3818L23.262 17.3879L18.0088 17.3818Z" fill="#FFB6B6"/>
<path d="M22.5244 11.6995L20.5265 10.1813L19.4777 10.1226L17.9214 11.0822L17.5403 12.9534L16.6391 15.0605L17.961 20.7469C17.961 20.7469 18.0849 21.155 17.7601 21.204C17.4352 21.253 17.4741 21.8545 17.4741 21.8545C17.4741 21.8545 17.5403 22.3758 17.2248 22.4217C16.9094 22.4676 16.0681 22.4676 16.8042 23.3785C17.5403 24.2894 23.3624 20.8441 23.3624 20.8441L24.208 16.5734C24.208 16.5734 25.848 14.4534 24.0819 13.2392L22.5244 11.6995Z" fill="#E6E6E6"/>
<path d="M13.8023 24.6103C13.7143 24.5045 13.6514 24.3815 13.6181 24.2498C13.5848 24.1182 13.5819 23.9811 13.6097 23.8482C13.6374 23.7154 13.695 23.59 13.7785 23.4809C13.862 23.3718 13.9693 23.2816 14.0929 23.2168L16.6061 15.0989L18.1775 15.8604L15.4407 23.6413C15.5401 23.8484 15.5571 24.0834 15.4886 24.3018C15.42 24.5202 15.2706 24.7068 15.0686 24.8262C14.8667 24.9456 14.6262 24.9896 14.3929 24.9498C14.1595 24.91 13.9494 24.7892 13.8023 24.6103Z" fill="#A0616A"/>
<path d="M18.2824 11.0068C18.2824 11.0068 17.8331 10.7771 17.5259 11.7714C17.2799 12.5675 15.2839 17.3092 15.2584 18.462C15.0942 18.4955 14.9461 18.5807 14.8377 18.7041C14.7292 18.8275 14.6665 18.9821 14.6594 19.1436L17.1273 19.4619C17.5586 19.1118 17.6717 18.6389 17.5049 18.4986L18.0407 17.09L20.2762 12.6082L18.6101 11.1674L18.2824 11.0068Z" fill="#E6E6E6"/>
<path d="M31.4691 21.9419C31.501 21.8099 31.5024 21.6728 31.4733 21.5402C31.4441 21.4076 31.3852 21.2828 31.3005 21.1746C31.2158 21.0663 31.1075 20.9772 30.9832 20.9136C30.8589 20.85 30.7216 20.8134 30.581 20.8064L24.816 14.469L23.593 15.8735L29.5566 21.7501C29.56 21.9783 29.6502 22.1972 29.8102 22.3656C29.9701 22.534 30.1886 22.64 30.4244 22.6636C30.6601 22.6873 30.8967 22.6269 31.0892 22.4938C31.2818 22.3608 31.417 22.1644 31.4691 21.9419Z" fill="#A0616A"/>
<path d="M21.318 11.541C21.318 11.541 21.6198 11.1468 22.3436 11.9155C22.923 12.5309 26.8532 15.9755 27.3941 17.0044C27.5572 16.9662 27.7289 16.9814 27.8822 17.0475C28.0354 17.1136 28.1614 17.2269 28.2403 17.3696L26.1582 18.6838C25.612 18.5476 25.2976 18.1684 25.385 17.9724L24.269 16.9253L20.2397 13.8148L21.0946 11.8222L21.318 11.541Z" fill="#E6E6E6"/>
<path d="M42.8164 28.9413C50.9471 28.9413 57.5384 22.5971 57.5384 14.7712C57.5384 6.94524 50.9471 0.601074 42.8164 0.601074C34.6857 0.601074 28.0945 6.94524 28.0945 14.7712C28.0945 22.5971 34.6857 28.9413 42.8164 28.9413Z" fill="#4C38C2"/>
<path opacity="0.2" d="M42.12 19.7864C41.4455 20.4355 40.5308 20.8002 39.577 20.8002C38.6232 20.8002 37.7085 20.4355 37.0341 19.7864C36.4545 19.2283 36.0904 18.4964 36.002 17.712C35.9136 16.9275 36.1063 16.1376 36.5481 15.4729L35.7569 16.2498C35.0825 16.899 34.7036 17.7794 34.7036 18.6974C34.7036 19.6155 35.0825 20.4959 35.7569 21.145C36.4314 21.7942 37.3461 22.1589 38.2999 22.1589C39.2536 22.1589 40.1683 21.7942 40.8428 21.1451L42.5961 19.3928L42.6228 19.2838L42.12 19.7864Z" fill="black"/>
<path opacity="0.2" d="M43.7903 8.9607C44.5786 8.44392 45.5479 8.24973 46.485 8.42083C47.4221 8.59194 48.2501 9.11433 48.787 9.87309C49.2484 10.5253 49.4644 11.3097 49.3993 12.0963C49.3343 12.8828 48.992 13.6244 48.4292 14.1981L49.357 13.5768C50.1453 13.06 50.688 12.263 50.8658 11.361C51.0436 10.4591 50.8418 9.52609 50.3049 8.76733C49.768 8.00857 48.9399 7.48617 48.0029 7.31506C47.0658 7.14396 46.0965 7.33815 45.3082 7.85493L43.2463 9.26198L43.199 9.36422L43.7903 8.9607Z" fill="black"/>
<path d="M38.2999 22.5918C37.5263 22.5918 36.77 22.371 36.1267 21.9572C35.4834 21.5435 34.982 20.9555 34.6859 20.2675C34.3899 19.5795 34.3124 18.8225 34.4634 18.0921C34.6143 17.3618 34.9869 16.6909 35.5339 16.1644L38.8535 12.9045C39.2167 12.5544 39.6479 12.2766 40.1226 12.087C40.5973 11.8974 41.1062 11.7998 41.6202 11.7996C42.1341 11.7994 42.6431 11.8967 43.118 12.0859C43.5928 12.2751 44.0243 12.5525 44.3877 12.9023C44.4469 12.9593 44.4801 13.0365 44.4801 13.117C44.4801 13.1976 44.4469 13.2748 44.3877 13.3317C44.3286 13.3887 44.2483 13.4206 44.1647 13.4206C44.081 13.4206 44.0008 13.3887 43.9416 13.3317C43.3264 12.7395 42.4919 12.4068 41.6218 12.4069C40.7517 12.4069 39.9172 12.7395 39.3019 13.3317C38.8143 14.9862 37.7608 16.1214 35.9823 16.5916C35.6771 16.8846 35.435 17.2326 35.2696 17.6158C35.1042 17.9989 35.0189 18.4097 35.0186 18.8246C35.0182 19.2394 35.1028 19.6503 35.2675 20.0337C35.4322 20.4172 35.6737 20.7656 35.9784 21.0591C36.283 21.3526 36.6448 21.5854 37.043 21.7443C37.4411 21.9032 37.8679 21.985 38.299 21.9851C38.73 21.9851 39.1569 21.9034 39.5551 21.7446C39.9533 21.5858 40.3151 21.353 40.6198 21.0596C40.5479 20.3809 40.754 19.7428 42.369 19.3114C42.3977 19.2825 42.432 19.2594 42.47 19.2434C42.508 19.2273 42.5489 19.2186 42.5904 19.2178C42.6319 19.217 42.6732 19.2241 42.7118 19.2387C42.7505 19.2532 42.7857 19.275 42.8156 19.3027C42.8455 19.3304 42.8694 19.3635 42.886 19.4002C42.9026 19.4368 42.9115 19.4762 42.9122 19.5161C42.9129 19.5561 42.9054 19.5957 42.8902 19.6329C42.875 19.67 42.8522 19.7039 42.8234 19.7326L41.0701 21.4849C40.7074 21.8367 40.2758 22.1157 39.8003 22.3057C39.3248 22.4957 38.8148 22.5929 38.2999 22.5918Z" fill="white"/>
<path d="M43.6894 17.9803C43.1755 17.9816 42.6665 17.8849 42.1917 17.6956C41.7169 17.5063 41.2858 17.2282 40.9234 16.8775C40.8643 16.8205 40.831 16.7433 40.8311 16.6627C40.8311 16.5822 40.8643 16.505 40.9235 16.448C40.9827 16.3911 41.0629 16.3591 41.1466 16.3591C41.2302 16.3591 41.3105 16.3911 41.3696 16.4481C41.6743 16.7413 42.0359 16.9739 42.434 17.1326C42.832 17.2913 43.2586 17.373 43.6895 17.373C44.1203 17.373 44.5469 17.2913 44.9449 17.1326C45.343 16.9739 45.7046 16.7413 46.0093 16.4481C46.4297 14.0104 48.1438 13.6664 49.6337 12.9596C49.9384 12.6664 50.18 12.3183 50.3449 11.9352C50.5098 11.552 50.5946 11.1414 50.5946 10.7267C50.5946 10.312 50.5098 9.90139 50.3449 9.51827C50.18 9.13514 49.9383 8.78703 49.6337 8.4938C49.329 8.20057 48.9674 7.96796 48.5693 7.80927C48.1713 7.65058 47.7446 7.5689 47.3138 7.5689C46.883 7.56891 46.4563 7.65059 46.0583 7.80929C45.6602 7.96798 45.2986 8.20059 44.9939 8.49382C44.5795 9.64475 44.1725 10.8093 42.9381 10.4726C42.9088 10.5008 42.8741 10.5231 42.8358 10.5384C42.7975 10.5536 42.7565 10.5615 42.7151 10.5615C42.6314 10.5615 42.5512 10.5295 42.492 10.4726C42.4329 10.4156 42.3996 10.3384 42.3996 10.2579C42.3996 10.1773 42.4328 10.1001 42.492 10.0432L44.5478 8.06444C44.911 7.71482 45.3422 7.43749 45.8168 7.24827C46.2914 7.05906 46.8001 6.96167 47.3138 6.96167C47.8275 6.96167 48.3361 7.05905 48.8107 7.24826C49.2853 7.43747 49.7165 7.7148 50.0797 8.06442C50.443 8.41403 50.7311 8.82909 50.9277 9.28589C51.1243 9.74268 51.2255 10.2323 51.2255 10.7267C51.2255 11.2211 51.1243 11.7107 50.9277 12.1675C50.7311 12.6243 50.443 13.0394 50.0798 13.389L46.4554 16.8775C46.093 17.2282 45.662 17.5063 45.1872 17.6956C44.7124 17.8849 44.2033 17.9816 43.6894 17.9803Z" fill="white"/>
<path d="M55.6074 7.55976C54.9891 6.54904 54.245 5.61467 53.3917 4.77733C53.2014 4.59111 53.0048 4.4089 52.8039 4.23177C52.6924 4.13362 52.5799 4.03744 52.4653 3.94329C52.2476 3.76315 52.0237 3.58904 51.7955 3.42106C49.2177 1.52318 46.0616 0.496478 42.8161 0.500009C34.6412 0.500009 27.989 6.90186 27.989 14.7713C27.9886 15.639 28.0706 16.505 28.234 17.3583C28.2342 17.3631 28.235 17.3679 28.2361 17.3725C28.3108 17.7642 28.4033 18.1509 28.5106 18.5304C29.2704 21.2095 30.8258 23.6169 32.9862 25.4576C35.1466 27.2983 37.818 28.4923 40.673 28.8932C43.528 29.2941 46.4425 28.8844 49.0592 27.7145C51.6759 26.5446 53.8811 24.6652 55.4044 22.3068C55.6095 21.9889 55.8022 21.663 55.9828 21.329C57.1343 19.1904 57.7038 16.8057 57.6381 14.3978C57.5725 11.9899 56.8738 9.6373 55.6074 7.55976ZM42.8161 28.8402C40.8964 28.8408 38.9954 28.4774 37.2217 27.7706C35.448 27.0638 33.8364 26.0275 32.479 24.7209C31.1216 23.4144 30.045 21.8632 29.3106 20.156C28.5763 18.4488 28.1987 16.6191 28.1993 14.7713C28.1993 7.01315 34.7569 0.702439 42.8161 0.702439C44.7664 0.703503 46.6968 1.08036 48.4934 1.81079C50.29 2.54122 51.9166 3.61045 53.2771 4.95544C53.632 5.30409 53.9669 5.67104 54.2803 6.05468C54.5907 6.43007 54.8803 6.82096 55.1479 7.22572C56.2634 8.91247 56.9924 10.8088 57.2861 12.7882C57.5799 14.7677 57.4317 16.7846 56.8514 18.7045C56.722 19.1336 56.5706 19.5537 56.4002 19.9657C56.2288 20.3786 56.0385 20.7835 55.8282 21.1762C54.5983 23.4796 52.7339 25.4129 50.4389 26.7647C48.1438 28.1164 45.5067 28.8345 42.8161 28.8402Z" fill="#3F3D56"/>
<path d="M62.9864 48.3715L62.0199 48.3636L61.592 44.6917L63.0186 44.7033L62.9864 48.3715Z" fill="#FFB6B6"/>
<path d="M63.2428 47.9424L62.9905 47.9262L61.961 47.8584L61.6297 47.8372L61.6234 48.5021L60.0797 49.5102C60.0035 49.5601 59.9458 49.6321 59.9151 49.7157C59.8844 49.7994 59.8822 49.8903 59.909 49.9752C59.9358 50.0601 59.9901 50.1345 60.0639 50.1876C60.1377 50.2407 60.2273 50.2697 60.3194 50.2703L62.2407 50.2855L62.5772 49.6297L62.7002 50.2896L63.4258 50.2956L63.2428 47.9424Z" fill="#2F2E41"/>
<path d="M73.1625 47.6917L72.2387 47.9651L70.6792 44.5887L72.0428 44.1853L73.1625 47.6917Z" fill="#FFB6B6"/>
<path d="M73.2725 47.2087L73.0265 47.2665L72.0244 47.5003L71.7016 47.5762L71.9045 48.2128L70.7488 49.6217C70.6986 49.6832 70.6674 49.7569 70.6587 49.8346C70.65 49.9123 70.6642 49.9907 70.6996 50.061C70.7351 50.1313 70.7903 50.1906 70.8591 50.2321C70.9278 50.2736 71.0073 50.2957 71.0885 50.2958C71.1313 50.2957 71.1738 50.2896 71.2147 50.2776L73.0518 49.7341L73.1664 49.0104L73.4913 49.6035L74.1844 49.3981L73.2725 47.2087Z" fill="#2F2E41"/>
<path d="M61.0423 17.4956L59.1979 22.6549L59.1369 23.0678C58.6722 23.4925 59.256 23.6324 59.0371 23.7444C58.8182 23.8565 58.671 24.1704 58.966 24.2265C59.261 24.2827 60.2121 44.4061 61.4667 45.1874C62.7213 45.9688 63.4848 46.5339 63.2544 45.3899C63.1615 44.9289 63.2928 42.4574 63.4827 39.6704C63.5043 39.3545 63.8443 39.0202 63.5493 38.7131C63.2544 38.406 63.5857 38.2039 63.6042 37.9491C63.8688 34.3097 64.1744 30.7167 64.1744 30.7167C64.1744 30.7167 66.1297 37.18 66.6374 36.6796C67.1452 36.1793 66.9442 37.4112 67.0993 37.7793C67.229 38.0869 66.6758 38.6911 67.4888 38.7004C68.3019 38.7097 70.2113 44.9921 70.405 44.985C70.7888 44.9709 71.8676 45.0107 72.5082 44.8838C72.8245 44.8211 71.4203 40.0646 70.2477 35.9573C70.1542 35.6298 69.6452 35.6222 69.9725 34.9898C70.2999 34.3574 68.6713 30.2657 68.811 30.0764C69.182 29.5741 69.3232 29.3558 68.9574 29.3229C68.5916 29.29 68.4835 29.4832 68.4638 28.9959C68.444 28.5087 68.3809 27.3071 68.3809 27.3071C68.3809 27.3071 68.1159 22.5552 66.2603 19.9298L66.102 18.3699L61.0423 17.4956Z" fill="#2F2E41"/>
<path d="M65.6504 7.64526L63.2044 7.98049L63.0568 9.68526L61.8498 11.5026C61.8498 11.5026 59.1668 13.3199 61.038 16.1907C60.3259 18.6637 59.618 21.0354 58.943 22.6166C58.4172 25.7542 63.1275 26.055 68.5123 24.9445C68.5123 24.9445 68.4381 23.6029 67.9494 22.9579C67.4607 22.3129 67.7267 22.1721 67.7267 22.1721L67.3853 20.9671C67.5785 19.2254 66.9261 19.0691 66.6195 18.2643L67.5504 9.91464L65.6504 7.64526Z" fill="#E6E6E6"/>
<path d="M53.9082 22.2395C53.9342 22.0719 54.027 21.9206 54.167 21.8179C54.307 21.7152 54.4832 21.6691 54.658 21.6895C54.6934 21.6941 54.7284 21.7016 54.7626 21.7119L56.1795 19.8977L57.3888 20.2658L55.1687 22.549C55.1137 22.6821 55.0144 22.794 54.8863 22.867C54.7583 22.9401 54.6087 22.9704 54.461 22.953C54.377 22.9424 54.296 22.9159 54.2226 22.8751C54.1493 22.8344 54.085 22.7801 54.0334 22.7154C53.9819 22.6507 53.944 22.5769 53.9221 22.4981C53.9002 22.4194 53.8946 22.3372 53.9057 22.2564C53.9064 22.2508 53.9073 22.2451 53.9082 22.2395Z" fill="#FFB6B6"/>
<path d="M66.4932 10.9444C66.4585 10.9029 66.4207 10.8624 66.3807 10.8229C66.103 10.5474 65.7453 10.359 65.3544 10.2824C64.9636 10.2059 64.5578 10.2447 64.1903 10.3938C64.1546 10.4079 64.1188 10.4241 64.0841 10.4403C62.8275 11.0344 62.1492 11.4302 62.0672 11.6154C62.0388 11.6782 62.0146 11.7399 61.9904 11.7996C61.9673 11.8583 61.9452 11.914 61.9221 11.9646C61.8253 12.1812 61.7139 12.3158 61.4299 12.2551C61.3358 12.2329 61.245 12.1993 61.1597 12.1549C61.1208 12.1367 61.085 12.1175 61.0514 12.0992C60.9294 12.0345 60.841 11.9879 60.7811 12.0304C60.7233 12.0719 60.7212 12.1772 60.7738 12.4211C60.7912 12.5229 60.7883 12.627 60.7654 12.7278C60.6958 13.0218 60.587 13.3059 60.4415 13.5729C60.2235 13.9915 59.9783 14.3965 59.7075 14.7855L57.2058 18.2187L57.0365 18.4505L56.8514 18.7045L55.375 20.7309L55.4623 20.8168L55.8282 21.1762L55.9092 21.2562L55.9828 21.329L56.1732 21.5163L56.3519 21.6914L60.3405 18.5638L60.7853 18.2146L61.5824 17.5891L63.2155 16.3088L66.3061 13.5557C66.5012 13.3833 66.6581 13.1748 66.7674 12.9426C66.8767 12.7104 66.9362 12.4593 66.9422 12.2045C66.9422 12.1873 66.9433 12.1711 66.9433 12.1539C66.9445 11.7125 66.7852 11.2847 66.4932 10.9444Z" fill="#E6E6E6"/>
<path d="M64.1819 7.58306C65.6915 7.58306 66.9152 6.40523 66.9152 4.9523C66.9152 3.49937 65.6915 2.32153 64.1819 2.32153C62.6724 2.32153 61.4487 3.49937 61.4487 4.9523C61.4487 6.40523 62.6724 7.58306 64.1819 7.58306Z" fill="#FFB6B6"/>
<path d="M67.8041 8.60033C68.1709 9.10565 68.4163 9.68321 68.5225 10.2911C68.2268 10.4732 67.8827 10.5688 67.5318 10.5664C67.5199 10.5221 67.508 10.4779 67.4943 10.4337C67.3927 10.0911 67.2414 9.76407 67.045 9.46212C67.0719 9.78772 67.026 10.1151 66.9105 10.4222C66.725 10.3411 66.5263 10.2917 66.3232 10.2764C66.1578 10.2764 65.9946 10.3134 65.8466 10.3845C65.6747 9.83567 65.5164 9.33105 65.4041 8.96897C65.4007 9.87663 64.0185 10.668 62.5104 10.5533C62.4559 10.5205 63.0023 9.02795 62.9495 8.99354C62.8287 8.91655 62.7112 8.83299 62.5938 8.75107C63.0874 8.01707 63.6236 7.23066 63.5317 7.1127C63.5385 7.25852 62.9972 7.95973 62.4082 8.62163C62.0814 8.39063 63.9385 4.63221 63.021 4.32747C63.0057 4.46018 62.8031 4.46018 62.5563 4.43233C62.4912 4.21337 62.3944 4.00433 62.2687 3.81138C62.285 4.00574 62.2607 4.20129 62.1972 4.38645C61.9534 4.38651 61.7104 4.41123 61.4721 4.46018C61.4169 4.37665 61.3561 4.29674 61.2899 4.22097C61.2964 4.31331 61.2936 4.40605 61.2814 4.49786C61.038 4.54865 60.8371 4.60762 60.8082 4.65514C60.6176 4.58797 60.9427 4.28487 60.8235 4.12758C60.5205 3.73438 60.9699 3.16095 61.2542 2.75463C61.838 1.92234 63.1198 1.63399 64.027 2.13369C64.0679 1.9977 64.2772 1.9076 64.5462 1.84698C64.6601 1.82279 64.7768 1.81234 64.8934 1.81585C66.0509 1.83551 67.6578 2.75463 67.7207 3.86709C67.7258 3.9785 67.7343 4.09973 67.7429 4.22916C67.8246 5.47433 67.7241 6.62283 68.6076 7.53376C68.9276 7.86306 68.931 9.4228 68.8084 10.2256C68.4901 9.90284 68.2637 8.64785 67.8041 8.60033Z" fill="#2F2E41"/>
<path d="M37.7012 15.1266C37.8754 15.1266 38.0167 14.9906 38.0167 14.8229C38.0167 14.6552 37.8754 14.5193 37.7012 14.5193C37.527 14.5193 37.3857 14.6552 37.3857 14.8229C37.3857 14.9906 37.527 15.1266 37.7012 15.1266Z" fill="#4C38C2"/>
<path d="M47.6912 14.9242C47.8654 14.9242 48.0067 14.7882 48.0067 14.6205C48.0067 14.4528 47.8654 14.3169 47.6912 14.3169C47.517 14.3169 47.3757 14.4528 47.3757 14.6205C47.3757 14.7882 47.517 14.9242 47.6912 14.9242Z" fill="#4C38C2"/>
<path d="M17.6615 6.0462C17.4214 6.62172 16.7441 7.7535 16.6523 8.37091L16.6936 8.33183C16.7724 8.46134 16.8619 8.58452 16.9613 8.70017C17.1394 8.52012 17.3545 8.37775 17.5929 8.28213C17.4628 8.53925 17.3874 8.81886 17.3712 9.10447C17.6268 9.87567 18.8085 9.53224 19.5008 9.44803C20.1922 10.2092 21.1121 10.4079 22.3166 9.97025C22.6535 10.0036 23.0306 10.0239 23.2667 9.83229C23.5028 9.64069 23.3622 9.28586 23.4892 9.01749C24.3939 7.10584 23.559 6.41614 22.8496 5.54933C22.6935 5.35857 22.6941 5.07391 22.5042 4.89191C22.2406 4.63964 21.8366 4.56204 21.4641 4.49989C21.5609 4.50479 21.6573 4.48564 21.7442 4.44428C21.831 4.40291 21.9053 4.34073 21.96 4.26371C22.0079 4.18611 22.0327 4.09728 22.0315 4.00702C22.0303 3.91675 22.0032 3.82855 21.9532 3.75215C21.82 3.53957 21.5432 3.41596 21.2761 3.38508C21.013 3.36788 20.7487 3.38975 20.4925 3.44991C20.3266 3.47092 20.1659 3.52037 20.018 3.5959C19.9483 3.63172 19.8915 3.68719 19.8554 3.75489C19.8193 3.82258 19.8055 3.89928 19.8159 3.97472C19.8381 4.04439 19.8764 4.10833 19.9279 4.16176C19.9794 4.2152 20.0428 4.25675 20.1133 4.28332C20.2208 4.32707 20.3339 4.35687 20.4496 4.37193C19.9183 4.30556 19.3785 4.39649 18.9022 4.63262C18.3052 4.93911 17.9024 5.47099 17.6615 6.0462Z" fill="#2F2E41"/>
<path d="M20.8939 9.2729C22.0725 9.2729 23.0279 8.35333 23.0279 7.21897C23.0279 6.08462 22.0725 5.16504 20.8939 5.16504C19.7154 5.16504 18.76 6.08462 18.76 7.21897C18.76 8.35333 19.7154 9.2729 20.8939 9.2729Z" fill="#A0616A"/>
<path d="M18.8407 6.1177C18.9644 6.47762 19.318 6.5936 19.6448 6.66593C19.7479 6.68905 19.8515 6.71059 19.9562 6.72976C19.9948 6.6833 20.0358 6.63777 20.0787 6.59474C20.2568 6.41469 20.472 6.27232 20.7104 6.1767C20.6073 6.3798 20.5388 6.59753 20.5074 6.82157C20.705 6.84916 20.9037 6.87171 21.1034 6.88921C21.2724 6.92383 21.4488 6.89464 21.5961 6.80766C21.7433 6.72068 21.8503 6.58257 21.8948 6.42186C22.0766 6.70809 22.2916 6.97764 22.5857 7.09134C22.7538 7.14949 22.9369 7.15427 23.1081 7.10498C23.2792 7.05569 23.4295 6.95492 23.5368 6.81744C23.7064 6.59318 23.8239 6.3365 23.8816 6.06475C23.965 5.74602 24.0114 5.37886 23.8475 5.17664C23.7163 5.01298 23.4899 5.01004 23.2809 5.02456C22.8198 5.05861 22.3636 5.13822 21.9195 5.26214L21.8819 5.34351C21.9582 4.90213 21.7926 4.47747 21.4863 4.32644C21.2796 4.22546 21.031 4.24239 20.7895 4.26288C20.4792 4.2762 20.1727 4.33327 19.8796 4.43225C19.5434 4.55672 19.2554 4.77813 19.0549 5.06619C18.8405 5.37953 18.734 5.80687 18.8407 6.1177Z" fill="#2F2E41"/>
<path d="M21.8827 4.19781C21.8617 4.19183 21.9162 4.19951 21.8973 4.2C21.9067 4.19948 21.916 4.19822 21.9252 4.19624C21.9268 4.19593 21.948 4.18941 21.9339 4.19421C21.9656 4.18509 21.9939 4.16733 22.0153 4.14308C22.0654 4.08342 22.1048 4.01605 22.1316 3.94381C22.1656 3.84835 22.2201 3.76087 22.2916 3.68711C22.3119 3.66749 22.3367 3.65275 22.364 3.64409C22.3914 3.63543 22.4204 3.63309 22.4489 3.63727C22.4773 3.64145 22.5043 3.65202 22.5277 3.66814C22.5511 3.68425 22.5702 3.70545 22.5835 3.73001C22.6105 3.82475 22.6013 3.92568 22.5575 4.01442C22.5269 4.10472 22.4814 4.18968 22.4227 4.26602C22.3243 4.39086 22.1904 4.48546 22.0371 4.53829C21.8597 4.6003 21.6663 4.60562 21.4855 4.55346C21.4617 4.54393 21.4412 4.52791 21.4266 4.50736C21.412 4.48682 21.4039 4.46264 21.4034 4.43775C21.4028 4.41287 21.4098 4.38837 21.4234 4.36724C21.4371 4.3461 21.4568 4.32924 21.4802 4.31871L21.7817 4.19993C21.7976 4.19321 21.8147 4.18956 21.832 4.1892C21.8493 4.18883 21.8666 4.19176 21.8827 4.19781C21.8989 4.20386 21.9136 4.21291 21.9262 4.22445C21.9387 4.23599 21.9487 4.24979 21.9557 4.26507C21.9627 4.28034 21.9665 4.29679 21.9669 4.31347C21.9672 4.33016 21.9642 4.34675 21.9579 4.36231C21.9516 4.37786 21.9422 4.39207 21.9302 4.40412C21.9183 4.41618 21.9039 4.42584 21.888 4.43256L21.5866 4.55134L21.5812 4.31659C21.6189 4.32704 21.6576 4.33341 21.6966 4.33558C21.7383 4.3396 21.7804 4.33789 21.8216 4.33051C21.8611 4.32553 21.8999 4.31642 21.9373 4.30336C21.9613 4.29494 21.9848 4.28535 22.0077 4.27463C22.0161 4.27073 22.0243 4.26669 22.0325 4.26249C22.0319 4.2628 22.067 4.24313 22.0516 4.25237C22.0906 4.22839 22.1272 4.20096 22.1609 4.17044C22.1728 4.15962 22.1838 4.14787 22.1937 4.13533C22.2108 4.11502 22.2268 4.09377 22.2414 4.07167C22.2711 4.02487 22.2946 3.9747 22.3114 3.92231C22.3191 3.90029 22.3255 3.8779 22.3308 3.85523C22.3322 3.84279 22.3346 3.83046 22.3378 3.81832C22.349 3.7894 22.3357 3.83521 22.3485 3.84773L22.4041 3.88715C22.4145 3.89014 22.4255 3.89084 22.4363 3.88918C22.447 3.88752 22.4573 3.88356 22.4662 3.87758C22.4728 3.86866 22.4714 3.87014 22.4619 3.88202C22.4509 3.89599 22.4408 3.91063 22.4317 3.92583C22.4118 3.96163 22.3938 3.99837 22.3777 4.03593C22.3446 4.1158 22.3026 4.19203 22.2526 4.26332C22.2037 4.33544 22.1323 4.39083 22.0487 4.4216C21.9651 4.45237 21.8735 4.45695 21.787 4.43469C21.7546 4.42225 21.7285 4.39804 21.7144 4.36726C21.7004 4.33649 21.6994 4.30162 21.7118 4.27019C21.7251 4.23922 21.7503 4.21438 21.7821 4.20089C21.814 4.1874 21.85 4.18629 21.8827 4.19781Z" fill="#2F2E41"/>
</g>
<defs>
<clipPath id="clip0_9_397">
<rect width="76" height="50" fill="white" transform="translate(0.666748 0.5)"/>
</clipPath>
</defs>
</svg>
